<svg width="141" height="47" viewBox="0 0 141 47" fill="none" xmlns="http://www.w3.org/2000/svg">
<path d="M7.74609 20.166C8.72266 20.2246 9.54297 20.2734 10.207 20.3125C10.8906 20.332 11.457 20.3516 11.9062 20.3711C12.4141 20.3906 12.8438 20.3906 13.1953 20.3711C13.5469 20.3516 14.0254 20.3027 14.6309 20.2246C15.1387 20.166 15.8125 20.0781 16.6523 19.9609C17.5117 19.8242 18.5762 19.6484 19.8457 19.4336C19.3965 19.8828 19.0449 20.293 18.791 20.6641C18.5566 21.0156 18.3711 21.3184 18.2344 21.5723C18.0781 21.8848 17.9707 22.1484 17.9121 22.3633C17.873 22.5586 17.9121 23.0469 18.0293 23.8281C18.1465 24.6094 18.3125 25.5371 18.5273 26.6113C18.7422 27.666 18.9766 28.7988 19.2305 30.0098C19.4844 31.2012 19.7383 32.3242 19.9922 33.3789C20.2461 34.4141 20.4707 35.3027 20.666 36.0449C20.8809 36.7676 21.0371 37.1973 21.1348 37.334C21.4277 37.7441 21.6133 38.0176 21.6914 38.1543C21.7695 38.2715 21.9062 38.3789 22.1016 38.4766C22.1797 38.5156 22.3066 38.5742 22.4824 38.6523C22.6387 38.7305 22.8438 38.8281 23.0977 38.9453C23.3711 39.0625 23.7129 39.1992 24.123 39.3555C23.3613 39.3945 22.707 39.4238 22.1602 39.4434C21.6133 39.4434 21.1641 39.4531 20.8125 39.4727C20.4023 39.4922 20.0508 39.5117 19.7578 39.5312C19.4648 39.5312 19.1133 39.5508 18.7031 39.5898C18.3516 39.6289 17.8926 39.668 17.3262 39.707C16.7793 39.7461 16.1348 39.7852 15.3926 39.8242C15.7832 39.5508 16.0957 39.3066 16.3301 39.0918C16.584 38.8574 16.7793 38.6621 16.916 38.5059C17.0723 38.3105 17.1797 38.1348 17.2383 37.9785C17.2773 37.8027 17.3066 37.5391 17.3262 37.1875C17.3457 36.875 17.3457 36.4648 17.3262 35.957C17.3066 35.4297 17.2578 34.7461 17.1797 33.9062L9.47461 34.6973C9.2793 35.0293 9.13281 35.3223 9.03516 35.5762C8.9375 35.8105 8.86914 36.0156 8.83008 36.1914C8.77148 36.4062 8.75195 36.582 8.77148 36.7188C8.81055 36.875 8.87891 37.0605 8.97656 37.2754C9.07422 37.4707 9.21094 37.7051 9.38672 37.9785C9.58203 38.2324 9.86523 38.5352 10.2363 38.8867C9.74805 38.8672 9.25 38.8574 8.74219 38.8574C8.23438 38.8574 7.76562 38.8672 7.33594 38.8867C6.82812 38.9062 6.33008 38.9258 5.8418 38.9453C5.35352 38.9648 4.79688 38.9941 4.17188 39.0332C3.64453 39.0723 3.0293 39.1211 2.32617 39.1797C1.60352 39.2188 0.832031 39.2773 0.0117188 39.3555C0.519531 39.1211 0.949219 38.8867 1.30078 38.6523C1.65234 38.3984 1.94531 38.1641 2.17969 37.9492C2.45312 37.7148 2.6875 37.4902 2.88281 37.2754C3.01953 37.0801 3.29297 36.6309 3.70312 35.9277C4.11328 35.2051 4.57227 34.3555 5.08008 33.3789C5.60742 32.4023 6.1543 31.3574 6.7207 30.2441C7.30664 29.1309 7.83398 28.0859 8.30273 27.1094C8.77148 26.1133 9.15234 25.2539 9.44531 24.5312C9.73828 23.8086 9.88477 23.3398 9.88477 23.125C9.8457 22.8711 9.74805 22.5879 9.5918 22.2754C9.45508 22.002 9.24023 21.6895 8.94727 21.3379C8.67383 20.9863 8.27344 20.5957 7.74609 20.166ZM16.8281 31.7383C16.7109 31.0547 16.6035 30.4688 16.5059 29.9805C16.4082 29.4727 16.3301 29.0527 16.2715 28.7207C16.1934 28.3301 16.1348 27.9883 16.0957 27.6953C16.0371 27.4219 15.9688 27.0703 15.8906 26.6406C15.8125 26.2695 15.7148 25.8105 15.5977 25.2637C15.5 24.6973 15.373 24.0234 15.2168 23.2422C14.1035 25.4688 13.2344 27.1973 12.6094 28.4277C12.0039 29.6387 11.5645 30.5273 11.291 31.0938C10.959 31.7578 10.7734 32.1484 10.7344 32.2656L16.8281 31.7383ZM21.1055 23.8574C21.4375 23.916 21.7793 23.9648 22.1309 24.0039C22.4629 24.0234 22.7656 24.043 23.0391 24.0625C23.3516 24.082 23.6543 24.0918 23.9473 24.0918C24.2402 24.0918 24.5723 24.082 24.9434 24.0625C25.2559 24.043 25.627 24.0137 26.0566 23.9746C26.5059 23.9355 26.9941 23.877 27.5215 23.7988C27.209 23.9746 26.9648 24.1602 26.7891 24.3555C26.6133 24.5508 26.4766 24.7266 26.3789 24.8828C26.2617 25.0781 26.1836 25.2539 26.1445 25.4102C26.1055 25.5664 26.1152 25.8887 26.1738 26.377C26.2324 26.8652 26.3105 27.4316 26.4082 28.0762C26.5254 28.7207 26.6523 29.3945 26.7891 30.0977C26.9258 30.8008 27.0625 31.4453 27.1992 32.0312C27.3555 32.6172 27.4922 33.1055 27.6094 33.4961C27.7461 33.8867 27.8535 34.0723 27.9316 34.0527C28.0098 34.0527 28.127 33.8574 28.2832 33.4668C28.459 33.0762 28.6543 32.5977 28.8691 32.0312C29.084 31.4453 29.3086 30.8105 29.543 30.127C29.7773 29.4238 29.9824 28.7695 30.1582 28.1641C30.334 27.5586 30.4707 27.0508 30.5684 26.6406C30.6855 26.2109 30.7344 25.957 30.7148 25.8789C30.6562 25.8008 30.5879 25.6934 30.5098 25.5566C30.373 25.3418 30.0703 24.9707 29.6016 24.4434C30.168 24.4824 30.6562 24.5215 31.0664 24.5605C31.4766 24.5801 31.8086 24.6094 32.0625 24.6484C32.3555 24.6875 32.5898 24.7168 32.7656 24.7363C32.9414 24.7559 33.1953 24.7559 33.5273 24.7363C33.8008 24.7363 34.1621 24.7266 34.6113 24.707C35.0801 24.668 35.6562 24.6094 36.3398 24.5312C35.832 24.8242 35.4121 25.0879 35.0801 25.3223C34.7676 25.5371 34.5234 25.7227 34.3477 25.8789C34.1328 26.0742 33.9766 26.2402 33.8789 26.377C33.7422 26.6309 33.498 27.2363 33.1465 28.1934C32.9902 28.6035 32.7949 29.1113 32.5605 29.7168C32.3457 30.3223 32.082 31.0547 31.7695 31.9141C31.4766 32.7539 31.125 33.7402 30.7148 34.873C30.3047 36.0059 29.8457 37.3047 29.3379 38.7695L26.4961 39.0625C26.125 37.832 25.8223 36.8066 25.5879 35.9863C25.373 35.1465 25.1973 34.4727 25.0605 33.9648C24.9043 33.3789 24.7871 32.9199 24.709 32.5879C24.6113 32.2168 24.4941 31.6797 24.3574 30.9766C24.2207 30.2539 24.084 29.5215 23.9473 28.7793C23.8105 28.0371 23.6738 27.373 23.5371 26.7871C23.4004 26.1816 23.293 25.8105 23.2148 25.6738C23.1367 25.5762 23 25.4395 22.8047 25.2637C22.6484 25.1074 22.4336 24.9219 22.1602 24.707C21.8867 24.4727 21.5352 24.1895 21.1055 23.8574ZM37.043 28.1348C37.1406 28.0176 37.1992 27.8027 37.2188 27.4902C37.2578 27.1582 37.3359 26.7871 37.4531 26.377C37.5898 25.9668 37.8145 25.5371 38.127 25.0879C38.4395 24.6387 38.9473 24.2188 39.6504 23.8281C40.334 23.4375 40.998 23.2031 41.6426 23.125C42.2871 23.0469 42.9023 23.0762 43.4883 23.2129C44.0742 23.3496 44.6211 23.5645 45.1289 23.8574C45.6562 24.1504 46.1348 24.4727 46.5645 24.8242C46.8574 25.0586 47.0918 25.4004 47.2676 25.8496C47.4434 26.2793 47.5801 26.7676 47.6777 27.3145C47.7754 27.8613 47.8438 28.4375 47.8828 29.043C47.9414 29.6289 47.9805 30.2051 48 30.7715C48.0195 31.3184 48.0293 31.8262 48.0293 32.2949C48.0488 32.7441 48.0879 33.1152 48.1465 33.4082C48.2246 33.8379 48.3613 34.209 48.5566 34.5215C48.752 34.8145 48.9668 35.0684 49.2012 35.2832C49.4355 35.4785 49.6699 35.6348 49.9043 35.752C50.1387 35.8691 50.3438 35.957 50.5195 36.0156C50.6367 36.0742 50.7441 36.1133 50.8418 36.1328C51.0371 36.2109 51.1738 36.2109 51.252 36.1328C51.1348 36.4062 51.0273 36.6406 50.9297 36.8359C50.832 37.0312 50.7539 37.1973 50.6953 37.334C50.6172 37.4902 50.5488 37.6172 50.4902 37.7148C50.4316 37.832 50.3633 37.9395 50.2852 38.0371C50.2266 38.1348 50.1484 38.2422 50.0508 38.3594C49.9531 38.4766 49.8555 38.6035 49.7578 38.7402C49.5039 38.6426 49.2598 38.5254 49.0254 38.3887C48.8105 38.252 48.6152 38.125 48.4395 38.0078C48.2246 37.8711 48.0293 37.7344 47.8535 37.5977C47.6777 37.4609 47.5117 37.3047 47.3555 37.1289C47.2188 36.9727 47.0723 36.8066 46.916 36.6309C46.7793 36.4551 46.6621 36.2598 46.5645 36.0449C46.4473 36.2988 46.1641 36.6602 45.7148 37.1289C45.2852 37.5977 44.7188 38.0273 44.0156 38.418C43.3125 38.7891 42.4922 39.0527 41.5547 39.209C40.6367 39.3652 39.6211 39.2578 38.5078 38.8867C38.0195 38.7305 37.5605 38.5059 37.1309 38.2129C36.7012 37.9004 36.3301 37.5293 36.0176 37.0996C35.7246 36.6699 35.5098 36.1816 35.373 35.6348C35.2559 35.0684 35.2656 34.4434 35.4023 33.7598C35.5391 33.0762 35.7832 32.5 36.1348 32.0312C36.4863 31.5625 36.9062 31.1816 37.3945 30.8887C37.8828 30.5957 38.4297 30.3711 39.0352 30.2148C39.6406 30.0586 40.2656 29.9512 40.9102 29.8926C41.418 29.873 41.9258 29.9023 42.4336 29.9805C42.8633 30.0586 43.3125 30.2051 43.7812 30.4199C44.25 30.6152 44.6504 30.918 44.9824 31.3281C44.9629 30.293 44.9238 29.4727 44.8652 28.8672C44.8262 28.2422 44.7871 27.7637 44.748 27.4316C44.6699 27.041 44.6016 26.7676 44.543 26.6113C44.4453 26.4746 44.3379 26.3184 44.2207 26.1426C44.123 25.9668 43.9961 25.8105 43.8398 25.6738C43.6836 25.5176 43.4883 25.3906 43.2539 25.293C43.0195 25.1953 42.7461 25.1562 42.4336 25.1758C42.1016 25.1953 41.8379 25.2832 41.6426 25.4395C41.4473 25.5957 41.291 25.7812 41.1738 25.9961C41.0762 26.1914 41.0176 26.4062 40.998 26.6406C40.9785 26.875 40.9883 27.0801 41.0273 27.2559C41.0664 27.373 41.125 27.5 41.2031 27.6367C41.2812 27.7539 41.3887 27.8809 41.5254 28.0176C41.6621 28.1543 41.8477 28.2715 42.082 28.3691C41.6328 28.4277 41.2324 28.4766 40.8809 28.5156C40.5293 28.5352 40.2266 28.5645 39.9727 28.6035C39.6797 28.6426 39.4258 28.6719 39.2109 28.6914C38.9961 28.7109 38.7422 28.75 38.4492 28.8086C38.1953 28.8477 37.8828 28.8965 37.5117 28.9551C37.1406 29.0137 36.7109 29.0918 36.2227 29.1895C36.3398 29.0527 36.4473 28.9258 36.5449 28.8086C36.6426 28.6719 36.7305 28.5547 36.8086 28.457C36.8867 28.3398 36.9648 28.2324 37.043 28.1348ZM41.4375 31.6211C41.0859 31.6406 40.7344 31.7285 40.3828 31.8848C40.0312 32.0215 39.7188 32.2266 39.4453 32.5C39.1719 32.7539 38.9375 33.0566 38.7422 33.4082C38.5664 33.7402 38.4785 34.1113 38.4785 34.5215C38.4785 34.9316 38.5762 35.293 38.7715 35.6055C38.9863 35.8984 39.2598 36.1426 39.5918 36.3379C39.9434 36.5332 40.3145 36.6504 40.7051 36.6895C41.1152 36.7285 41.5156 36.6895 41.9062 36.5723C42.2773 36.4355 42.6289 36.2207 42.9609 35.9277C43.293 35.6152 43.5762 35.2832 43.8105 34.9316C44.0449 34.5605 44.2109 34.1992 44.3086 33.8477C44.4062 33.4766 44.416 33.1738 44.3379 32.9395C44.1816 32.4316 43.8301 32.0801 43.2832 31.8848C42.7363 31.6699 42.1211 31.582 41.4375 31.6211ZM50.959 26.9043L56.3496 26.9629C56.0371 28.1543 55.8027 29.1699 55.6465 30.0098C55.5098 30.8496 55.4219 31.5527 55.3828 32.1191C55.3047 32.7637 55.2852 33.3105 55.3242 33.7598C55.3828 34.1699 55.4805 34.6094 55.6172 35.0781C55.7344 35.4688 55.9102 35.918 56.1445 36.4258C56.3789 36.9336 56.6914 37.4414 57.082 37.9492C56.8477 37.8711 56.5938 37.8125 56.3203 37.7734C56.0469 37.7344 55.793 37.7051 55.5586 37.6855C55.2852 37.666 55.0117 37.666 54.7383 37.6855C54.4648 37.7051 54.1621 37.7344 53.8301 37.7734C53.5566 37.8125 53.2246 37.8613 52.834 37.9199C52.4434 37.9785 52.0332 38.0566 51.6035 38.1543C51.8965 37.2754 52.1211 36.5137 52.2773 35.8691C52.4531 35.2246 52.5801 34.6875 52.6582 34.2578C52.7363 33.75 52.7852 33.3398 52.8047 33.0273C52.8047 32.6367 52.8047 32.1973 52.8047 31.709C52.8047 31.2012 52.8047 30.7129 52.8047 30.2441C52.8047 29.7754 52.7949 29.3652 52.7754 29.0137C52.7559 28.6426 52.7168 28.4082 52.6582 28.3105L52.3652 28.0176C52.248 27.9199 52.0723 27.7832 51.8379 27.6074C51.623 27.4121 51.3301 27.1777 50.959 26.9043ZM53.0391 22.3926C53.4492 22.1777 53.8594 22.1191 54.2695 22.2168C54.6992 22.3145 55.0312 22.5 55.2656 22.7734C55.5 23.0469 55.5781 23.3691 55.5 23.7402C55.4414 24.1113 55.1289 24.4727 54.5625 24.8242C53.9961 25.1562 53.498 25.2734 53.0684 25.1758C52.6387 25.0781 52.3359 24.873 52.1602 24.5605C51.9844 24.248 51.9551 23.8867 52.0723 23.4766C52.1895 23.0469 52.5117 22.6855 53.0391 22.3926ZM58.8105 40.8203C59.0059 40.5273 59.1621 40.2539 59.2793 40C59.3965 39.7461 59.4941 39.5312 59.5723 39.3555C59.6504 39.1406 59.709 38.9453 59.748 38.7695C59.7676 38.6523 59.7773 38.3105 59.7773 37.7441C59.7773 37.1777 59.7578 36.4648 59.7188 35.6055C59.6992 34.7461 59.6699 33.7793 59.6309 32.7051C59.6113 31.6309 59.5723 30.5371 59.5137 29.4238C59.4746 28.3105 59.4258 27.2266 59.3672 26.1719C59.3281 25.1172 59.2891 24.1699 59.25 23.3301C59.2109 22.4707 59.1719 21.7676 59.1328 21.2207C59.0938 20.6738 59.0645 20.3613 59.0449 20.2832C59.0059 20.166 58.9375 20.0488 58.8398 19.9316C58.6445 19.6973 58.3125 19.4727 57.8438 19.2578C58.8398 19.0039 59.6016 18.7988 60.1289 18.6426C60.4414 18.5645 60.7148 18.4863 60.9492 18.4082C61.1641 18.3301 61.3789 18.252 61.5938 18.1738C61.7695 18.0957 61.9648 18.0078 62.1797 17.9102C62.3945 17.793 62.5898 17.666 62.7656 17.5293C62.668 18.0957 62.5898 18.6426 62.5312 19.1699C62.4727 19.6973 62.4238 20.1855 62.3848 20.6348C62.3457 21.1426 62.3262 21.6309 62.3262 22.0996C62.2285 23.0566 62.1699 24.1016 62.1504 25.2344C62.1504 26.3477 62.1602 27.4805 62.1797 28.6328C62.1992 29.7852 62.2383 30.9082 62.2969 32.002C62.3555 33.0957 62.4141 34.0918 62.4727 34.9902C62.5508 35.8691 62.6191 36.6211 62.6777 37.2461C62.7559 37.8516 62.8145 38.2422 62.8535 38.418C62.9316 38.7109 63.0098 38.9941 63.0879 39.2676C63.166 39.502 63.2539 39.7461 63.3516 40C63.4492 40.2734 63.5664 40.4883 63.7031 40.6445H60.8613C60.6074 40.6445 60.3633 40.6543 60.1289 40.6738C59.9141 40.6934 59.6895 40.7129 59.4551 40.7324C59.2207 40.752 59.0059 40.7812 58.8105 40.8203ZM66.0469 41.0547C66.4375 40.7812 66.75 40.4199 66.9844 39.9707C67.2188 39.5215 67.3945 39.082 67.5117 38.6523C67.6484 38.1445 67.7363 37.6172 67.7754 37.0703C67.7754 36.7383 67.7559 36.2109 67.7168 35.4883C67.6777 34.8828 67.6191 34.0527 67.541 32.998C67.4629 31.9238 67.3457 30.5371 67.1895 28.8379C66.9746 28.8574 66.7891 28.877 66.6328 28.8965C66.4766 28.8965 66.3496 28.8965 66.252 28.8965H65.9297C65.832 28.8965 65.7148 28.9062 65.5781 28.9258C65.4609 28.9453 65.3047 28.9746 65.1094 29.0137C64.9336 29.0527 64.7188 29.1016 64.4648 29.1602C64.5039 29.0039 64.5234 28.8477 64.5234 28.6914C64.543 28.5156 64.5625 28.3594 64.582 28.2227C64.6016 28.0664 64.6113 27.9199 64.6113 27.7832V27.3438C64.6113 27.207 64.6113 27.0605 64.6113 26.9043C64.6309 26.748 64.6504 26.5918 64.6699 26.4355L66.9844 26.4941C66.8867 25.6543 66.8477 24.9023 66.8672 24.2383C66.8867 23.5547 66.916 22.9688 66.9551 22.4805C67.0137 21.9141 67.0918 21.416 67.1895 20.9863C67.3262 20.459 67.5117 19.9707 67.7461 19.5215C67.9805 19.0723 68.3027 18.6914 68.7129 18.3789C69.123 18.0664 69.6309 17.832 70.2363 17.6758C70.8418 17.5 71.5742 17.4121 72.4336 17.4121C73.4102 17.4316 74.1816 17.5586 74.748 17.793C75.3145 18.0078 75.7344 18.291 76.0078 18.6426C76.2812 18.9746 76.4375 19.3555 76.4766 19.7852C76.5156 20.2148 76.5059 20.6348 76.4473 21.0449C76.4082 21.4355 76.3398 21.7969 76.2422 22.1289C76.1641 22.4609 76.1348 22.7051 76.1543 22.8613C76.1738 22.9785 76.2227 23.1348 76.3008 23.3301C76.3594 23.4863 76.4473 23.6816 76.5645 23.916C76.7012 24.1504 76.8965 24.4141 77.1504 24.707C76.8379 24.668 76.5254 24.6387 76.2129 24.6191C75.9004 24.5801 75.6074 24.5508 75.334 24.5312C75.0215 24.5117 74.7188 24.502 74.4258 24.502C74.1328 24.5215 73.8301 24.541 73.5176 24.5605C73.2441 24.5996 72.9512 24.6387 72.6387 24.6777C72.3262 24.6973 72.0332 24.7559 71.7598 24.8535C72.1504 24.5801 72.4531 24.2969 72.668 24.0039C72.8828 23.7109 73.0488 23.4473 73.166 23.2129C73.3027 22.9395 73.3906 22.666 73.4297 22.3926C73.4492 22.0605 73.4297 21.6895 73.3711 21.2793C73.332 20.8496 73.2441 20.459 73.1074 20.1074C72.9707 19.7559 72.8047 19.4727 72.6094 19.2578C72.4141 19.0234 72.1797 18.9355 71.9062 18.9941C71.4961 19.1504 71.1152 19.5312 70.7637 20.1367C70.4707 20.6445 70.1875 21.416 69.9141 22.4512C69.6406 23.4668 69.4648 24.8828 69.3867 26.6992C69.7578 26.7383 70.0996 26.7676 70.4121 26.7871C70.7441 26.7871 71.0371 26.7969 71.291 26.8164C71.584 26.8359 71.8574 26.8457 72.1113 26.8457C72.3652 26.8457 72.6484 26.8359 72.9609 26.8164C73.2344 26.7969 73.5566 26.7871 73.9277 26.7871C74.2988 26.7676 74.709 26.7383 75.1582 26.6992L75.0996 28.2227C74.748 28.2617 74.4062 28.291 74.0742 28.3105C73.7422 28.3301 73.4492 28.3496 73.1953 28.3691C72.9023 28.3887 72.6289 28.4082 72.375 28.4277C72.1016 28.4473 71.8184 28.4668 71.5254 28.4863C71.2715 28.5059 70.9785 28.5352 70.6465 28.5742C70.334 28.6133 70.002 28.6523 69.6504 28.6914C69.9238 30.8984 70.1582 32.6855 70.3535 34.0527C70.5684 35.4004 70.7539 36.4453 70.9102 37.1875C71.0664 38.0664 71.2031 38.6914 71.3203 39.0625C71.4375 39.375 71.5742 39.6484 71.7305 39.8828C71.8672 40.0977 72.0332 40.3027 72.2285 40.498C72.4238 40.6934 72.6484 40.8203 72.9023 40.8789C72.2773 40.7812 71.7402 40.7031 71.291 40.6445C70.8418 40.6055 70.4609 40.5762 70.1484 40.5566C69.7969 40.5371 69.4941 40.5273 69.2402 40.5273C69.0059 40.5469 68.7227 40.5762 68.3906 40.6152C67.8242 40.6738 67.043 40.8203 66.0469 41.0547ZM74.748 25.9668C75.1191 25.9863 75.4512 25.9961 75.7441 25.9961C76.0566 25.9766 76.3203 25.957 76.5352 25.9375C76.7891 25.918 77.0137 25.8984 77.209 25.8789C77.502 25.8398 77.8047 25.791 78.1172 25.7324C78.3906 25.6934 78.6738 25.6445 78.9668 25.5859C79.2793 25.5078 79.582 25.4199 79.875 25.3223C79.7578 25.6152 79.6602 25.8691 79.582 26.084C79.5039 26.2988 79.4453 26.4844 79.4062 26.6406C79.3477 26.8164 79.3184 26.9629 79.3184 27.0801C79.2988 27.2168 79.2891 27.3828 79.2891 27.5781C79.2695 27.9102 79.2695 28.4473 79.2891 29.1895C80.3047 28.3105 81.1543 27.627 81.8379 27.1387C82.541 26.6504 83.0977 26.2695 83.5078 25.9961C83.9961 25.6836 84.377 25.4785 84.6504 25.3809C85.373 25.2637 86.0078 25.4297 86.5547 25.8789C86.7891 26.0742 87.0137 26.3379 87.2285 26.6699C87.4434 26.9824 87.6289 27.4023 87.7852 27.9297C87.9414 28.457 88.0586 29.0918 88.1367 29.834C88.2148 30.5566 88.2246 31.4258 88.166 32.4414C87.7559 32.4805 87.3848 32.5195 87.0527 32.5586C86.7402 32.5977 86.4766 32.627 86.2617 32.6465C86.0078 32.6855 85.7734 32.7051 85.5586 32.7051L84.7676 32.793C84.4941 32.832 84.1523 32.8711 83.7422 32.9102C83.3516 32.9297 82.873 32.9688 82.3066 33.0273C83.127 32.3633 83.6543 31.7871 83.8887 31.2988C84.1426 30.791 84.25 30.3711 84.2109 30.0391C84.1719 29.668 83.9961 29.3457 83.6836 29.0723C83.3125 28.8574 82.9121 28.7793 82.4824 28.8379C82.1113 28.877 81.6816 29.043 81.1934 29.3359C80.7051 29.6289 80.1875 30.1758 79.6406 30.9766C79.6797 32.2266 79.7188 33.2617 79.7578 34.082C79.8164 34.9023 79.8652 35.5664 79.9043 36.0742C79.9629 36.6602 80.0117 37.1191 80.0508 37.4512C80.1094 37.7441 80.2266 38.0566 80.4023 38.3887C80.5391 38.6621 80.7344 38.9648 80.9883 39.2969C81.2422 39.6289 81.5742 39.9609 81.9844 40.293C81.125 40.2539 80.4219 40.2539 79.875 40.293C79.543 40.3125 79.25 40.332 78.9961 40.3516C78.7227 40.3906 78.4297 40.4297 78.1172 40.4688C77.8438 40.5078 77.5215 40.5469 77.1504 40.5859C76.7988 40.6445 76.4082 40.7031 75.9785 40.7617C76.1348 40.5469 76.2617 40.293 76.3594 40C76.457 39.7266 76.5352 39.4629 76.5938 39.209C76.6719 38.916 76.7305 38.6133 76.7695 38.3008C76.7891 38.0273 76.7988 37.6172 76.7988 37.0703C76.8184 36.5234 76.8086 35.9082 76.7695 35.2246C76.75 34.5215 76.7207 33.7988 76.6816 33.0566C76.6426 32.2949 76.5938 31.582 76.5352 30.918C76.4766 30.2539 76.4082 29.6777 76.3301 29.1895C76.2715 28.6816 76.2031 28.3301 76.125 28.1348C76.0273 27.9004 75.9102 27.666 75.7734 27.4316C75.6562 27.2168 75.5098 26.9922 75.334 26.7578C75.1582 26.5039 74.9629 26.2402 74.748 25.9668ZM89.543 26.5234C90.0508 26.6211 90.4902 26.6992 90.8613 26.7578C91.252 26.7969 91.584 26.8359 91.8574 26.875C92.1699 26.9141 92.4434 26.9434 92.6777 26.9629C92.9121 26.9824 93.1855 27.002 93.498 27.0215C94.0254 27.041 94.7676 27.041 95.7246 27.0215C95.1582 26.9824 94.709 27.1289 94.377 27.4609C94.0645 27.7734 93.8301 28.1348 93.6738 28.5449C93.4785 29.0332 93.3711 29.5996 93.3516 30.2441C93.3125 31.1035 93.332 31.8848 93.4102 32.5879C93.5078 33.2715 93.6738 33.8574 93.9082 34.3457C94.1621 34.8145 94.4941 35.166 94.9043 35.4004C95.3145 35.6152 95.8418 35.6738 96.4863 35.5762C97.1309 35.4785 97.6191 35.2539 97.9512 34.9023C98.3027 34.5312 98.5566 34.082 98.7129 33.5547C98.8691 33.0078 98.957 32.3926 98.9766 31.709C99.0156 31.0254 99.0449 30.3125 99.0645 29.5703C99.0645 28.8281 99.0547 28.3008 99.0352 27.9883C99.0352 27.6562 99.0254 27.4414 99.0059 27.3438C98.9863 27.2461 98.957 27.207 98.918 27.2266C98.8789 27.2266 98.8301 27.1777 98.7715 27.0801C98.7324 27.002 98.6738 26.9238 98.5957 26.8457C98.5371 26.7676 98.459 26.6797 98.3613 26.582C98.2637 26.4648 98.1562 26.3477 98.0391 26.2305C98.5469 26.25 98.9961 26.2695 99.3867 26.2891C99.7969 26.2891 100.139 26.2988 100.412 26.3184C100.725 26.3379 100.998 26.3574 101.232 26.377C101.447 26.3965 101.73 26.4258 102.082 26.4648C102.375 26.5039 102.756 26.543 103.225 26.582C103.693 26.6211 104.25 26.6797 104.895 26.7578C104.445 26.8555 104.084 27.002 103.811 27.1973C103.537 27.3926 103.322 27.5879 103.166 27.7832C102.99 27.998 102.863 28.2324 102.785 28.4863C102.727 28.8184 102.727 29.3262 102.785 30.0098C102.824 30.6152 102.922 31.4453 103.078 32.5C103.234 33.5547 103.479 34.9414 103.811 36.6602L101.496 38.0371L101.027 34.1406C100.461 35.0977 99.8555 35.8398 99.2109 36.3672C98.5859 36.875 98 37.2461 97.4531 37.4805C96.8086 37.7539 96.1836 37.9102 95.5781 37.9492C94.7773 37.9492 94.084 37.9004 93.498 37.8027C92.9316 37.6855 92.4434 37.5391 92.0332 37.3633C91.623 37.1875 91.291 36.9922 91.0371 36.7773C90.8027 36.543 90.627 36.3086 90.5098 36.0742C90.2363 35.5859 90.0898 34.9609 90.0703 34.1992C90.0508 33.418 90.0801 32.6465 90.1582 31.8848C90.2363 31.1035 90.3242 30.3906 90.4219 29.7461C90.5195 29.1016 90.5488 28.6621 90.5098 28.4277C90.4707 28.252 90.4121 28.0566 90.334 27.8418C90.2559 27.666 90.1582 27.4707 90.041 27.2559C89.9238 27.0215 89.7578 26.7773 89.543 26.5234ZM105.334 26.9043L110.725 26.9629C110.412 28.1543 110.178 29.1699 110.021 30.0098C109.885 30.8496 109.797 31.5527 109.758 32.1191C109.68 32.7637 109.66 33.3105 109.699 33.7598C109.758 34.1699 109.855 34.6094 109.992 35.0781C110.109 35.4688 110.285 35.918 110.52 36.4258C110.754 36.9336 111.066 37.4414 111.457 37.9492C111.223 37.8711 110.969 37.8125 110.695 37.7734C110.422 37.7344 110.168 37.7051 109.934 37.6855C109.66 37.666 109.387 37.666 109.113 37.6855C108.84 37.7051 108.537 37.7344 108.205 37.7734C107.932 37.8125 107.6 37.8613 107.209 37.9199C106.818 37.9785 106.408 38.0566 105.979 38.1543C106.271 37.2754 106.496 36.5137 106.652 35.8691C106.828 35.2246 106.955 34.6875 107.033 34.2578C107.111 33.75 107.16 33.3398 107.18 33.0273C107.18 32.6367 107.18 32.1973 107.18 31.709C107.18 31.2012 107.18 30.7129 107.18 30.2441C107.18 29.7754 107.17 29.3652 107.15 29.0137C107.131 28.6426 107.092 28.4082 107.033 28.3105L106.74 28.0176C106.623 27.9199 106.447 27.7832 106.213 27.6074C105.998 27.4121 105.705 27.1777 105.334 26.9043ZM107.414 22.3926C107.824 22.1777 108.234 22.1191 108.645 22.2168C109.074 22.3145 109.406 22.5 109.641 22.7734C109.875 23.0469 109.953 23.3691 109.875 23.7402C109.816 24.1113 109.504 24.4727 108.938 24.8242C108.371 25.1562 107.873 25.2734 107.443 25.1758C107.014 25.0781 106.711 24.873 106.535 24.5605C106.359 24.248 106.33 23.8867 106.447 23.4766C106.564 23.0469 106.887 22.6855 107.414 22.3926ZM112.16 21.543C112.746 21.6016 113.234 21.6504 113.625 21.6895C114.035 21.7285 114.367 21.7578 114.621 21.7773C114.914 21.7969 115.148 21.8066 115.324 21.8066C115.5 21.8262 115.734 21.8262 116.027 21.8066C116.281 21.7871 116.613 21.7676 117.023 21.748C117.434 21.709 117.951 21.6504 118.576 21.5723C118.439 21.7676 118.332 21.9434 118.254 22.0996C118.176 22.2363 118.107 22.3633 118.049 22.4805L117.873 22.832C117.834 22.9492 117.795 23.0664 117.756 23.1836C117.717 23.2812 117.678 23.3984 117.639 23.5352C117.619 23.6719 117.6 23.8184 117.58 23.9746H122.092L121.682 26.3477L117.551 26.1133C117.453 27.1094 117.385 27.8809 117.346 28.4277C117.307 28.9746 117.268 29.375 117.229 29.6289L117.17 30.1562C117.111 30.8984 117.053 31.709 116.994 32.5879C116.936 33.4473 116.916 34.248 116.936 34.9902C116.955 35.7324 117.023 36.3574 117.141 36.8652C117.258 37.3535 117.463 37.5977 117.756 37.5977C118.049 37.5977 118.322 37.5195 118.576 37.3633C118.83 37.207 119.045 37.0215 119.221 36.8066C119.416 36.5918 119.562 36.377 119.66 36.1621C119.758 35.9277 119.807 35.752 119.807 35.6348C119.807 35.5176 119.777 35.3809 119.719 35.2246C119.621 34.9316 119.445 34.5605 119.191 34.1113C119.758 34.248 120.256 34.3848 120.686 34.5215C120.9 34.5996 121.096 34.6777 121.271 34.7559C121.467 34.834 121.691 34.9219 121.945 35.0195C122.16 35.1172 122.434 35.2344 122.766 35.3711C123.098 35.5078 123.488 35.6738 123.938 35.8691C123.508 35.9473 123.195 36.0742 123 36.25C122.883 36.3281 122.795 36.416 122.736 36.5137C122.6 36.7285 122.443 37.0215 122.268 37.3926C122.092 37.7441 121.828 38.0957 121.477 38.4473C121.125 38.7988 120.646 39.1113 120.041 39.3848C119.455 39.6582 118.664 39.8145 117.668 39.8535C116.633 39.8926 115.842 39.7168 115.295 39.3262C114.768 38.9355 114.377 38.4863 114.123 37.9785C113.889 37.4512 113.752 36.9336 113.713 36.4258C113.674 35.918 113.645 35.5762 113.625 35.4004C113.605 35.2246 113.605 34.7852 113.625 34.082C113.645 33.3789 113.674 32.6074 113.713 31.7676C113.752 30.9082 113.791 30.0879 113.83 29.3066C113.869 28.5059 113.889 27.9199 113.889 27.5488C113.889 27.3535 113.898 27.1484 113.918 26.9336C113.918 26.7578 113.918 26.5723 113.918 26.377C113.938 26.1621 113.947 25.957 113.947 25.7617L109.699 25.7324L109.523 24.0625L113.801 24.1797C113.762 23.9648 113.713 23.7695 113.654 23.5938C113.615 23.3984 113.576 23.2422 113.537 23.125C113.479 22.9883 113.42 22.8711 113.361 22.7734C113.283 22.6758 113.195 22.5684 113.098 22.4512C113 22.3535 112.873 22.2266 112.717 22.0703C112.561 21.9141 112.375 21.7383 112.16 21.543ZM135.656 23.2715C135.48 23.7012 135.324 24.0918 135.188 24.4434C135.07 24.7949 134.963 25.1074 134.865 25.3809C134.768 25.6934 134.68 25.9668 134.602 26.2012C134.523 26.4746 134.436 26.7871 134.338 27.1387C134.24 27.4512 134.113 27.8418 133.957 28.3105C133.82 28.7598 133.654 29.2969 133.459 29.9219C133.303 28.9844 133.02 28.2422 132.609 27.6953C132.199 27.1289 131.779 26.6895 131.35 26.377C130.842 26.0254 130.295 25.7715 129.709 25.6152C128.654 25.4395 127.893 25.459 127.424 25.6738C126.955 25.8887 126.643 26.1621 126.486 26.4941C126.408 26.6309 126.32 26.8066 126.223 27.0215C126.145 27.2168 126.076 27.4219 126.018 27.6367C125.979 27.8516 125.969 28.0664 125.988 28.2812C126.008 28.4961 126.096 28.6719 126.252 28.8086C126.35 28.9062 126.604 29.043 127.014 29.2188C127.424 29.375 127.912 29.5605 128.479 29.7754C129.064 29.9707 129.68 30.1855 130.324 30.4199C130.988 30.6543 131.613 30.8887 132.199 31.123C132.785 31.3574 133.293 31.5918 133.723 31.8262C134.152 32.0605 134.436 32.2754 134.572 32.4707C134.689 32.666 134.816 32.9297 134.953 33.2617C135.109 33.5742 135.217 33.9258 135.275 34.3164C135.354 34.6875 135.373 35.0781 135.334 35.4883C135.314 35.8789 135.207 36.2695 135.012 36.6602C134.816 37.0508 134.504 37.4121 134.074 37.7441C133.664 38.0762 133.107 38.3496 132.404 38.5645C131.584 38.8184 130.793 38.8867 130.031 38.7695C129.27 38.6523 128.566 38.4766 127.922 38.2422C127.297 38.0078 126.75 37.7832 126.281 37.5684C125.812 37.334 125.48 37.2363 125.285 37.2754C125.07 37.3145 124.826 37.4219 124.553 37.5977C124.279 37.7734 124.016 37.959 123.762 38.1543C123.527 38.3301 123.322 38.4961 123.146 38.6523C122.971 38.7891 122.883 38.8379 122.883 38.7988C122.883 38.7598 122.912 38.6426 122.971 38.4473C123.049 38.252 123.127 38.0176 123.205 37.7441C123.303 37.4512 123.391 37.1387 123.469 36.8066C123.566 36.4551 123.635 36.123 123.674 35.8105C123.713 35.5566 123.762 35.2441 123.82 34.873C123.859 34.541 123.908 34.1406 123.967 33.6719C124.045 33.1836 124.133 32.5977 124.23 31.9141C124.328 32.4219 124.465 32.8613 124.641 33.2324C124.836 33.6035 125.021 33.9258 125.197 34.1992C125.412 34.5117 125.617 34.7754 125.812 34.9902C126.105 35.2637 126.447 35.5176 126.838 35.752C127.248 35.9863 127.658 36.1914 128.068 36.3672C128.479 36.5234 128.869 36.6211 129.24 36.6602C129.611 36.6992 129.924 36.6602 130.178 36.543C130.432 36.4258 130.646 36.2109 130.822 35.8984C131.018 35.5859 131.154 35.2441 131.232 34.873C131.311 34.502 131.34 34.1504 131.32 33.8184C131.301 33.4668 131.213 33.1836 131.057 32.9688C130.939 32.832 130.666 32.6562 130.236 32.4414C129.826 32.2266 129.328 31.9922 128.742 31.7383C128.176 31.4844 127.57 31.2207 126.926 30.9473C126.301 30.6738 125.705 30.4004 125.139 30.127C124.592 29.834 124.133 29.5605 123.762 29.3066C123.41 29.0332 123.215 28.7891 123.176 28.5742C123.137 28.2617 123.107 27.9199 123.088 27.5488C123.068 27.1582 123.088 26.7773 123.146 26.4062C123.225 26.0156 123.361 25.6445 123.557 25.293C123.771 24.9414 124.084 24.6484 124.494 24.4141C124.768 24.2578 125.129 24.1406 125.578 24.0625C126.027 23.9844 126.525 23.9453 127.072 23.9453C127.619 23.9258 128.186 23.9453 128.771 24.0039C129.357 24.043 129.914 24.1016 130.441 24.1797C130.988 24.2383 131.477 24.3164 131.906 24.4141C132.355 24.5117 132.697 24.5996 132.932 24.6777C133.205 24.7754 133.498 24.7852 133.811 24.707C134.084 24.6484 134.377 24.5215 134.689 24.3262C135.002 24.1309 135.324 23.7793 135.656 23.2715Z" fill="#111111"/>
<path d="M126.39 21.5C125.224 15.5 125.99 2.8 138.39 0C139.89 3.33333 139.59 12.3 126.39 21.5Z" fill="#094B10"/>
<path d="M123.223 21.0477C126.63 18.0742 134.897 13.4687 140.704 18.8349C139.088 20.9313 133.331 24.3088 123.223 21.0477Z" fill="#086911"/>
</svg>
